{
    "asset" : {
        "generator" : "Khronos glTF Blender I/O v3.2.40",
        "version" : "2.0"
    },
    "scene" : 0,
    "scenes" : [
        {
            "name" : "Scene",
            "nodes" : [
                0
            ]
        }
    ],
    "nodes" : [
        {
            "mesh" : 0,
            "name" : "Torus"
        }
    ],
    "meshes" : [
        {
            "name" : "Torus",
            "primitives" : [
                {
                    "attributes" : {
                        "POSITION" : 0,
                        "NORMAL" : 1,
                        "TEXCOORD_0" : 2
                    },
                    "indices" : 3
                }
            ]
        }
    ],
    "accessors" : [
        {
            "bufferView" : 0,
            "componentType" : 5126,
            "count" : 1600,
            "max" : [
                5.25,
                0.25,
                5.25
            ],
            "min" : [
                -5.25,
                -0.25,
                -5.25
            ],
            "type" : "VEC3"
        },
        {
            "bufferView" : 1,
            "componentType" : 5126,
            "count" : 1600,
            "type" : "VEC3"
        },
        {
            "bufferView" : 2,
            "componentType" : 5126,
            "count" : 1600,
            "type" : "VEC2"
        },
        {
            "bufferView" : 3,
            "componentType" : 5123,
            "count" : 2400,
            "type" : "SCALAR"
        }
    ],
    "bufferViews" : [
        {
            "buffer" : 0,
            "byteLength" : 19200,
            "byteOffset" : 0
        },
        {
            "buffer" : 0,
            "byteLength" : 19200,
            "byteOffset" : 19200
        },
        {
            "buffer" : 0,
            "byteLength" : 12800,
            "byteOffset" : 38400
        },
        {
            "buffer" : 0,
            "byteLength" : 4800,
            "byteOffset" : 51200
        }
    ],
    "buffers" : [
        {
            "byteLength" : 56000,
            "uri" : "data:application/octet-stream;base64,"
        }
    ]
}
