{
    "asset" : {
        "generator" : "Khronos glTF Blender I/O v3.2.43",
        "version" : "2.0"
    },
    "scene" : 0,
    "scenes" : [
        {
            "name" : "Scene",
            "nodes" : [
                0,
                1
            ]
        }
    ],
    "nodes" : [
        {
            "mesh" : 0,
            "name" : "Cube",
            "rotation" : [
                0,
                1,
                0,
                0
            ],
            "scale" : [
                -0.45619964599609375,
                -0.011760354042053223,
                -7.42024564743042
            ]
        },
        {
            "mesh" : 1,
            "name" : "Cube.001",
            "rotation" : [
                0,
                1,
                0,
                0
            ],
            "scale" : [
                -0.011793353594839573,
                -0.06478855758905411,
                -0.4262571632862091
            ],
            "translation" : [
                -0.0020473208278417587,
                -0.05592867359519005,
                -6.065645694732666
            ]
        }
    ],
    "materials" : [
        {
            "doubleSided" : true,
            "name" : "Material",
            "pbrMetallicRoughness" : {
                "baseColorFactor" : [
                    0.035217635333538055,
                    0.03397158533334732,
                    0.034903913736343384,
                    1
                ],
                "metallicFactor" : 0,
                "roughnessFactor" : 0.4000000059604645
            }
        }
    ],
    "meshes" : [
        {
            "name" : "Cube.001",
            "primitives" : [
                {
                    "attributes" : {
                        "POSITION" : 0,
                        "NORMAL" : 1,
                        "TEXCOORD_0" : 2
                    },
                    "indices" : 3,
                    "material" : 0
                },
                {
                    "attributes" : {
                        "POSITION" : 4,
                        "NORMAL" : 5,
                        "TEXCOORD_0" : 6
                    },
                    "indices" : 7
                }
            ]
        },
        {
            "name" : "Cube.003",
            "primitives" : [
                {
                    "attributes" : {
                        "POSITION" : 8,
                        "NORMAL" : 9,
                        "TEXCOORD_0" : 10
                    },
                    "indices" : 11
                }
            ]
        }
    ],
    "accessors" : [
        {
            "bufferView" : 0,
            "componentType" : 5126,
            "count" : 937,
            "max" : [
                1,
                1,
                1
            ],
            "min" : [
                -1,
                -1,
                -1
            ],
            "type" : "VEC3"
        },
        {
            "bufferView" : 1,
            "componentType" : 5126,
            "count" : 937,
            "type" : "VEC3"
        },
        {
            "bufferView" : 2,
            "componentType" : 5126,
            "count" : 937,
            "type" : "VEC2"
        },
        {
            "bufferView" : 3,
            "componentType" : 5123,
            "count" : 2511,
            "type" : "SCALAR"
        },
        {
            "bufferView" : 4,
            "componentType" : 5126,
            "count" : 1738,
            "max" : [
                0.9399424195289612,
                1,
                0.9971733093261719
            ],
            "min" : [
                -0.938936173915863,
                -1,
                -0.9958263635635376
            ],
            "type" : "VEC3"
        },
        {
            "bufferView" : 5,
            "componentType" : 5126,
            "count" : 1738,
            "type" : "VEC3"
        },
        {
            "bufferView" : 6,
            "componentType" : 5126,
            "count" : 1738,
            "type" : "VEC2"
        },
        {
            "bufferView" : 7,
            "componentType" : 5123,
            "count" : 3057,
            "type" : "SCALAR"
        },
        {
            "bufferView" : 8,
            "componentType" : 5126,
            "count" : 1272,
            "max" : [
                36.533180236816406,
                2.163623809814453,
                31.588714599609375
            ],
            "min" : [
                -36.147056579589844,
                -1.1028414964675903,
                -3.1052393913269043
            ],
            "type" : "VEC3"
        },
        {
            "bufferView" : 9,
            "componentType" : 5126,
            "count" : 1272,
            "type" : "VEC3"
        },
        {
            "bufferView" : 10,
            "componentType" : 5126,
            "count" : 1272,
            "type" : "VEC2"
        },
        {
            "bufferView" : 11,
            "componentType" : 5123,
            "count" : 1908,
            "type" : "SCALAR"
        }
    ],
    "bufferViews" : [
        {
            "buffer" : 0,
            "byteLength" : 11244,
            "byteOffset" : 0
        },
        {
            "buffer" : 0,
            "byteLength" : 11244,
            "byteOffset" : 11244
        },
        {
            "buffer" : 0,
            "byteLength" : 7496,
            "byteOffset" : 22488
        },
        {
            "buffer" : 0,
            "byteLength" : 5022,
            "byteOffset" : 29984
        },
        {
            "buffer" : 0,
            "byteLength" : 20856,
            "byteOffset" : 35008
        },
        {
            "buffer" : 0,
            "byteLength" : 20856,
            "byteOffset" : 55864
        },
        {
            "buffer" : 0,
            "byteLength" : 13904,
            "byteOffset" : 76720
        },
        {
            "buffer" : 0,
            "byteLength" : 6114,
            "byteOffset" : 90624
        },
        {
            "buffer" : 0,
            "byteLength" : 15264,
            "byteOffset" : 96740
        },
        {
            "buffer" : 0,
            "byteLength" : 15264,
            "byteOffset" : 112004
        },
        {
            "buffer" : 0,
            "byteLength" : 10176,
            "byteOffset" : 127268
        },
        {
            "buffer" : 0,
            "byteLength" : 3816,
            "byteOffset" : 137444
        }
    ],
    "buffers" : [
        {
            "byteLength" : 141260,
            "uri" : "data:application/octet-stream;base64,"
        }
    ]
}
